<svg width="40" height="40" viewBox="0 0 40 40" fill="none" xmlns="http://www.w3.org/2000/svg">
<path d="M19.6219 40L18.9851 34.88C18.6401 34.7467 18.3154 34.5867 18.0107 34.4C17.7051 34.2133 17.4063 34.0133 17.1144 33.8L12.3781 35.8L8 28.2L12.0995 25.08C12.073 24.8933 12.0597 24.7131 12.0597 24.5392V23.4592C12.0597 23.2864 12.073 23.1067 12.0995 22.92L8 19.8L12.3781 12.2L17.1144 14.2C17.4063 13.9867 17.7114 13.7867 18.0299 13.6C18.3483 13.4133 18.6667 13.2533 18.9851 13.12L19.6219 8H28.3781L29.0149 13.12C29.3599 13.2533 29.6852 13.4133 29.9908 13.6C30.2955 13.7867 30.5937 13.9867 30.8856 14.2L35.6219 12.2L40 19.8L35.9005 22.92C35.927 23.1067 35.9403 23.2864 35.9403 23.4592V24.5392C35.9403 24.7131 35.9138 24.8933 35.8607 25.08L39.9602 28.2L35.5821 35.8L30.8856 33.8C30.5937 34.0133 30.2886 34.2133 29.9702 34.4C29.6517 34.5867 29.3333 34.7467 29.0149 34.88L28.3781 40H19.6219ZM24.0796 29.6C25.6186 29.6 26.932 29.0533 28.0199 27.96C29.1078 26.8667 29.6517 25.5467 29.6517 24C29.6517 22.4533 29.1078 21.1333 28.0199 20.04C26.932 18.9467 25.6186 18.4 24.0796 18.4C22.5141 18.4 21.1938 18.9467 20.1186 20.04C19.0445 21.1333 18.5075 22.4533 18.5075 24C18.5075 25.5467 19.0445 26.8667 20.1186 27.96C21.1938 29.0533 22.5141 29.6 24.0796 29.6Z" fill="white"/>
<path d="M3.99503 11L3.77612 9.24C3.65755 9.19417 3.5459 9.13917 3.44119 9.075C3.33612 9.01083 3.23342 8.94208 3.13309 8.86875L1.50498 9.55625L0 6.94375L1.4092 5.87125C1.40008 5.80708 1.39552 5.74512 1.39552 5.68535V5.3141C1.39552 5.2547 1.40008 5.19292 1.4092 5.12875L0 4.05625L1.50498 1.44375L3.13309 2.13125C3.23342 2.05792 3.33831 1.98917 3.44776 1.925C3.55721 1.86083 3.66667 1.80583 3.77612 1.76L3.99503 0H7.00498L7.22388 1.76C7.34245 1.80583 7.45428 1.86083 7.55935 1.925C7.66406 1.98917 7.76659 2.05792 7.86692 2.13125L9.49502 1.44375L11 4.05625L9.5908 5.12875C9.59992 5.19292 9.60448 5.2547 9.60448 5.3141V5.68535C9.60448 5.74512 9.59536 5.80708 9.57712 5.87125L10.9863 6.94375L9.48134 9.55625L7.86692 8.86875C7.76659 8.94208 7.66169 9.01083 7.55224 9.075C7.44279 9.13917 7.33333 9.19417 7.22388 9.24L7.00498 11H3.99503ZM5.52736 7.425C6.05639 7.425 6.50788 7.23708 6.88184 6.86125C7.25581 6.48542 7.44279 6.03167 7.44279 5.5C7.44279 4.96833 7.25581 4.51458 6.88184 4.13875C6.50788 3.76292 6.05639 3.575 5.52736 3.575C4.98922 3.575 4.53536 3.76292 4.16577 4.13875C3.79655 4.51458 3.61194 4.96833 3.61194 5.5C3.61194 6.03167 3.79655 6.48542 4.16577 6.86125C4.53536 7.23708 4.98922 7.425 5.52736 7.425Z" fill="#00C2FF"/>
</svg>
