<svg xmlns="http://www.w3.org/2000/svg" width="40" height="40" viewBox="0 0 40 40">
  <g id="Group_13" data-name="Group 13" transform="translate(-8961 -7574)">
    <rect id="Rectangle_51" data-name="Rectangle 51" width="40" height="40" transform="translate(8961 7574)" fill="none"/>
    <g id="Group" transform="translate(8955.34 7567.792)">
      <path id="Path_30" data-name="Path 30" d="M17.3,13.669l12.255-3.316A2.71,2.71,0,0,0,26.2,7.189L9.847,11.614A3.6,3.6,0,0,0,7.31,16.007l4.343,16.376a2.71,2.71,0,0,0,4.419,1.327L12.816,21.438A6.373,6.373,0,0,1,17.3,13.669Z" fill="#e98e04"/>
      <path id="Path_31" data-name="Path 31" d="M43.173,43.743c1.77-5.857,2.13-15.232-8.368-23.318l2.626-4.548a2.708,2.708,0,0,0-3.052-3.966L18.024,16.336a3.6,3.6,0,0,0-2.537,4.393L19.831,37.1a2.709,2.709,0,0,0,4.961.661l2.542-4.4c3.89,2.25,9.2,6,11.747,10.781a2.224,2.224,0,0,0,4.092-.4Z" fill="#fff"/>
    </g>
  </g>
</svg>
