<svg width="40" height="43" viewBox="0 0 40 43" fill="none" xmlns="http://www.w3.org/2000/svg">
<path d="M9.69531 3.21875H2.31004C1.0342 3.21875 0 4.25295 0 5.52879V12.0173H9.69531V3.21875Z" fill="white"/>
<path d="M0 35.5295H12.3719V31.2916C12.3719 30.4703 13.0378 29.8046 13.8589 29.8046C14.68 29.8046 15.3459 30.4703 15.3459 31.2916V37.0165C15.3459 37.8376 14.68 38.5035 13.8589 38.5035H0V40.6345C0 41.9103 1.0342 42.9445 2.31004 42.9445H19.0583V23.1875H0V35.5295Z" fill="white"/>
<path d="M37.6899 3.21875H34.535C34.9413 4.22366 35.1673 5.32001 35.1673 6.46856C35.1673 7.91392 34.8082 9.31957 34.1374 10.5716H40V5.52879C40 4.25295 38.9658 3.21875 37.6899 3.21875Z" fill="white"/>
<path d="M31.9817 13.5364C31.5252 14.2497 31.1679 15.0184 30.9154 15.8353L29.5875 20.1304C29.1526 21.5371 27.8709 22.4822 26.3967 22.4822C24.9233 22.4813 23.6421 21.5347 23.2086 20.1269L21.8183 15.6122C21.4326 14.3603 20.7697 13.1704 19.9014 12.1716C18.5267 10.5908 17.7695 8.56522 17.7695 6.46856C17.7695 5.31986 17.9954 4.22351 18.4018 3.21875H12.6693V13.5042C12.6693 14.3254 12.0034 14.9912 11.1823 14.9912H0V20.2137H20.5453C21.3664 20.2137 22.0323 20.8794 22.0323 21.7007V26.1616H30.062C30.8831 26.1616 31.549 26.8274 31.549 27.6486V33.4479H40V13.5456H32.1438C32.0889 13.5456 32.0348 13.542 31.9817 13.5364Z" fill="white"/>
<path d="M28.575 34.935V29.1357H22.0323V42.9448H37.69C38.9658 42.9448 40 41.9106 40 40.6348V36.422H30.062C29.2407 36.422 28.575 35.7561 28.575 34.935Z" fill="white"/>
<path d="M23.95 14.9555L25.3405 19.4702C25.4834 19.9344 25.9124 20.2513 26.3981 20.2516C26.3982 20.2516 26.3984 20.2516 26.3984 20.2516C26.8842 20.2516 27.313 19.9353 27.4565 19.4714L28.7844 15.1762C29.2958 13.5221 30.1628 12.0303 31.2785 10.7915C32.3094 9.64609 32.9368 8.1307 32.9368 6.4684C32.9368 2.89606 30.0407 0 26.4684 0C22.8961 0 20 2.89606 20 6.4684C20 8.0907 20.5976 9.57294 21.5847 10.708C22.6564 11.9407 23.4693 13.3945 23.95 14.9555ZM26.5032 3.21859C28.2208 3.21859 29.6129 4.61085 29.6129 6.32833C29.6129 8.04595 28.2208 9.43806 26.5032 9.43806C24.7857 9.43806 23.3935 8.04595 23.3935 6.32833C23.3935 4.61085 24.7857 3.21859 26.5032 3.21859Z" fill="#9EEB04"/>
</svg>
